<?xml version="1.0" standalone="no"?>
<!DOCTYPE svg PUBLIC "-//W3C//DTD SVG 20010904//EN"
 "http://www.w3.org/TR/2001/REC-SVG-20010904/DTD/svg10.dtd">
<svg version="1.0" xmlns="http://www.w3.org/2000/svg"
 width="173.000000pt" height="166.000000pt" viewBox="0 0 173.000000 166.000000"
 preserveAspectRatio="xMidYMid meet">

<g transform="translate(0.000000,166.000000) scale(0.100000,-0.100000)"
fill="#000000" stroke="none">
<path d="M570 1555 c-168 -59 -289 -167 -370 -330 -72 -145 -94 -228 -70 -265
15 -24 44 15 60 80 59 250 274 458 491 477 82 7 120 -10 150 -69 19 -37 21
-53 15 -123 -12 -162 -84 -311 -209 -433 l-64 -64 -5 244 c-3 133 -9 251 -13
261 -4 9 -17 17 -30 17 l-23 0 6 -279 5 -279 -44 -22 c-53 -27 -79 -49 -79
-67 0 -18 53 -17 90 2 l30 16 0 -163 c0 -155 -1 -161 -18 -142 -29 32 -92 123
-92 134 0 17 -62 80 -79 80 -10 0 -25 -8 -34 -17 -15 -17 -51 -111 -78 -203
-7 -25 -28 -80 -46 -123 -18 -43 -33 -81 -33 -83 0 -2 15 -4 34 -4 32 0 35 3
56 57 12 32 25 67 30 78 4 11 13 40 20 65 15 55 51 150 56 150 3 0 9 -11 14
-24 8 -23 105 -165 120 -176 3 -3 16 -19 28 -37 18 -25 22 -45 22 -107 l0 -76
30 0 30 0 0 81 c0 80 0 81 45 139 25 32 45 63 45 69 0 6 3 11 8 11 4 0 34 38
67 85 33 46 63 84 68 84 4 1 7 -82 7 -184 l0 -185 30 0 30 0 0 223 c0 204 -2
225 -18 240 -10 10 -26 17 -35 17 -13 0 -105 -113 -187 -230 -8 -12 -25 -36
-37 -53 l-23 -31 0 182 0 181 28 15 c40 21 144 132 184 196 91 147 122 240
122 376 1 82 -3 107 -19 137 -50 95 -170 122 -315 72z"/>
<path d="M1175 1410 c-6 -18 9 -190 21 -252 5 -25 2 -27 -78 -52 -46 -14 -100
-28 -120 -31 -32 -5 -38 -10 -38 -30 0 -23 4 -25 50 -25 28 0 81 11 119 24
l70 24 5 -61 c3 -34 10 -185 16 -334 6 -150 13 -280 16 -288 4 -8 17 -15 31
-15 l25 0 -7 172 c-4 95 -10 254 -15 353 -5 99 -5 183 -1 188 10 10 132 46
199 59 46 9 52 13 52 35 0 24 -2 25 -57 20 -32 -2 -89 -14 -127 -25 -50 -15
-72 -18 -77 -11 -4 7 -12 69 -19 140 -12 124 -13 129 -36 129 -14 0 -25 -8
-29 -20z"/>
</g>
</svg>
